<?xml version="1.0" encoding="utf-8"?><svg xmlns="http://www.w3.org/2000/svg" xmlns:xlink="http://www.w3.org/1999/xlink"><symbol viewBox="0 0 288.931 288.931" id="coffee" xmlns="http://www.w3.org/2000/svg"><path d="M274.078 116.659c-8.649-8.649-18.324-10.267-26.745-8.631l.644-3.533c0-3.48 0-8.701-3.48-12.181s-6.96-5.22-12.181-5.22H21.76c-5.22 0-8.701 1.74-12.181 5.22s-3.48 6.96-3.48 12.181L20.02 181.06c6.96 41.763 43.503 73.085 87.006 73.085h40.023c43.346 0 79.732-29.391 86.884-72.633 3.098.748 5.986 1.288 8.822 1.288 13.921 0 26.102-6.96 33.062-19.141 10.442-15.678 8.702-36.559-1.739-47zM147.049 238.467h-40.023c-34.802 0-64.385-24.362-69.605-59.164L25.24 106.218h203.594l-12.181 73.085c-5.22 34.803-34.801 59.164-69.604 59.164zm113.108-85.265c-2.993 6.003-9.901 11.955-22.883 10.163l6.943-38.196c3.828-2.297 9.397-4.612 15.939 1.931 5.221 5.22 5.221 17.401.001 26.102zM77.444 54.015c0 10.441 5.22 17.401 5.22 19.141 1.74 1.74 3.48 3.48 6.96 3.48h5.22c5.22-3.48 5.22-8.701 3.48-12.181 0 0-3.48-5.22-3.48-10.441s3.48-10.441 3.48-10.441 5.22-8.701 5.22-19.141-5.22-17.401-5.22-19.141c-3.48-5.22-8.701-5.22-12.181-3.48-5.22 3.48-5.22 8.701-3.48 12.181 0 0 3.48 5.22 3.48 10.441s-3.48 10.441-3.48 10.441-5.219 8.7-5.219 19.141zm38.283 0c0 10.441 5.22 19.141 5.22 19.141 1.74 1.74 3.48 3.48 6.96 3.48h5.22c5.22-3.48 5.22-8.701 3.48-12.181 0 0-3.48-5.22-3.48-10.441s3.48-10.441 3.48-10.441 5.22-8.701 5.22-19.141-5.22-17.401-5.22-19.141c-3.48-5.22-8.701-5.22-12.181-3.48-5.22 3.48-5.22 8.701-3.48 12.181 0 0 3.48 5.22 3.48 10.441s-3.48 10.441-3.48 10.441-5.219 8.7-5.219 19.141zm38.283 0c0 10.441 5.22 19.141 5.22 19.141 1.74 1.74 3.48 3.48 6.96 3.48h5.22c5.22-3.48 5.22-8.701 3.48-12.181 0 0-3.48-5.22-3.48-10.441s3.48-10.441 3.48-10.441 5.22-8.701 5.22-19.141-5.22-17.401-5.22-19.141c-3.48-5.22-6.96-6.96-12.181-3.48-5.22 3.48-5.22 8.701-3.48 12.181 0 0 3.48 5.22 3.48 10.441s-3.48 10.441-3.48 10.441-5.219 8.7-5.219 19.141zm87.006 217.515H14.8c-5.22 0-8.701 3.48-8.701 8.701 0 5.22 3.48 8.701 8.701 8.701h226.216c5.22 0 8.701-3.48 8.701-8.701-.001-5.221-3.481-8.701-8.701-8.701z"/></symbol><symbol viewBox="0 0 24 24" id="socials--telegram-icon" xmlns="http://www.w3.org/2000/svg"><path d="m9.78 18.65.28-4.23 7.68-6.92c.34-.31-.07-.46-.52-.19L7.74 13.3 3.64 12c-.88-.25-.89-.86.2-1.3l15.97-6.16c.73-.33 1.43.18 1.15 1.3l-2.72 12.81c-.19.91-.74 1.13-1.5.71L12.6 16.3l-1.99 1.93c-.23.23-.42.42-.83.42Z"/></symbol><symbol viewBox="0 0 64 64" xml:space="preserve" id="socials--vk-icon" xmlns="http://www.w3.org/2000/svg"><style>.st0{fill:#4267b2}.st1{fill:url(#SVGID_1_)}.st2{fill:#fff}.st3{fill:#c2191e}.st4{fill:#1da1f3}.st5{fill:#fefe00}.st6{fill:#25d366;stroke:#fff;stroke-width:5;stroke-miterlimit:10}.st7{fill:#cb2027}.st8{fill:#0077b5}.st9{fill:url(#SVGID_2_)}.st10{fill:url(#SVGID_3_)}.st11{fill:#ff004f}.st12{fill:#00f7ef}.st14{fill:#395976}.st15{fill:#f58220}.st16{fill:#e6162d}.st17{fill:#f93}</style><path d="M4 13.9h7.1c.9 0 1.6.6 1.9 1.4.9 2.6 2.9 8.3 5.2 12.2 3.1 5.1 5.1 7 6.4 6.8 1.3-.3.9-3.7.9-6.4s.3-7.3-1-9.4l-2-2.9a1 1 0 0 1 .8-1.6h11.4c1.1 0 2 .9 2 2v14.5s.5 2.6 3.3-.1 5.8-7.7 8.3-12.8l1-2.4c.3-.7 1-1.2 1.8-1.2h7.4c1.4 0 2.4 1.4 1.9 2.7l-.8 2.1s-2.7 5.4-5.5 9.2c-2.8 3.9-3.4 4.8-3 5.8.4 1 7.6 7.7 9.4 10.9.5.9.9 1.7 1.3 2.4.7 1.3-.3 3-1.8 3h-8.4c-.7 0-1.4-.4-1.7-1l-.8-1.3s-5.1-6-8.2-7.9c-3.2-1.8-3.1.8-3.1.8V46c0 2.2-1.8 4-4 4h-2s-11 0-19.8-13.1C5.1 26.7 2.8 20.1 2 16.3c-.2-1.2.7-2.4 2-2.4z" id="cLayer_11"/></symbol></svg>