<?xml version="1.0" encoding="utf-8"?><svg xmlns="http://www.w3.org/2000/svg" xmlns:xlink="http://www.w3.org/1999/xlink"><symbol viewBox="0 0 24 24" id="dark-icon" xmlns="http://www.w3.org/2000/svg"><g data-name="Layer 2"><path d="M12.3 22h-.1a10.31 10.31 0 0 1-7.34-3.15 10.46 10.46 0 0 1-.26-14 10.13 10.13 0 0 1 4-2.74 1 1 0 0 1 1.06.22 1 1 0 0 1 .24 1 8.4 8.4 0 0 0 1.94 8.81 8.47 8.47 0 0 0 8.83 1.94 1 1 0 0 1 1.27 1.29A10.16 10.16 0 0 1 19.6 19a10.28 10.28 0 0 1-7.3 3Z" data-name="moon"/></g></symbol><symbol viewBox="0 0 64 64" id="light-icon" xmlns="http://www.w3.org/2000/svg"><defs><style>.bcls-1{fill:#ffef3f}</style></defs><g id="bSun"><circle class="bcls-1" cx="32" cy="32" r="13.55"/><path class="bcls-1" d="M32 4a1.81 1.81 0 0 1 1.81 1.81v4.46a1.81 1.81 0 0 1-3.62 0V5.81A1.81 1.81 0 0 1 32 4Zm0 47.92a1.81 1.81 0 0 1 1.81 1.81v4.46a1.81 1.81 0 0 1-3.62 0v-4.46A1.81 1.81 0 0 1 32 51.92ZM60 32a1.81 1.81 0 0 1-1.81 1.81h-4.46a1.81 1.81 0 1 1 0-3.62h4.46A1.81 1.81 0 0 1 60 32Zm-47.92 0a1.81 1.81 0 0 1-1.81 1.81H5.81a1.81 1.81 0 1 1 0-3.62h4.46A1.81 1.81 0 0 1 12.08 32ZM51.8 12.2a1.8 1.8 0 0 1 0 2.56l-3.16 3.15a1.8 1.8 0 0 1-2.55-2.55l3.15-3.16a1.8 1.8 0 0 1 2.56 0ZM17.91 46.09a1.79 1.79 0 0 1 0 2.55l-3.15 3.16a1.81 1.81 0 0 1-2.56-2.56l3.16-3.15a1.79 1.79 0 0 1 2.55 0ZM51.8 51.8a1.8 1.8 0 0 1-2.56 0l-3.15-3.16a1.8 1.8 0 0 1 2.55-2.55l3.16 3.15a1.8 1.8 0 0 1 0 2.56ZM17.91 17.91a1.79 1.79 0 0 1-2.55 0l-3.16-3.15a1.81 1.81 0 0 1 2.56-2.56l3.15 3.16a1.79 1.79 0 0 1 0 2.55Z"/></g></symbol></svg>