<svg version="1.1" id="Слой_1" xmlns="http://www.w3.org/2000/svg" x="0" y="0" viewBox="0 0 25 22" xml:space="preserve"><style>.st4{fill-rule:evenodd;clip-rule:evenodd;fill:#2b2b2b}</style><switch><g><path d="M21 18.5H5c-1.1 0-2-.9-2-2v-12c0-1.1.9-2 2-2h16c1.1 0 2 .9 2 2v12c0 1.1-.9 2-2 2z" fill="#2b2b2b" stroke="#f2526c" stroke-width=".5" stroke-miterlimit="10"/><path transform="rotate(-45.009 14.195 9)" fill="#f2db52" d="M12.24 7.04h3.92v3.92h-3.92z"/><path d="M14.2 6.76L16.44 9l-2.24 2.24L11.95 9l2.25-2.24m0-1.06L10.89 9l3.3 3.3L17.5 9l-3.3-3.3z" fill="#f2526c"/><path fill="none" stroke="#f2db52" stroke-width=".75" stroke-miterlimit="10" d="M9.25 8.75l3.87-3.87"/><path class="st4" d="M9.25 8.75l3.87-3.87"/><path fill="none" stroke="#f2526c" stroke-width=".75" stroke-miterlimit="10" d="M6.69 10.19l3.65-3.65"/><path class="st4" d="M6.69 10.19l3.65-3.65"/><text transform="translate(5.13 16.456)" font-size="2.5" font-family="MyriadPro-Regular" fill="#fff">lang - switcher</text></g></switch></svg>